<?xml version="1.0" encoding="UTF-8"?>
<svg version="1.1" xmlns="http://www.w3.org/2000/svg" width="1920" height="1260">
<path d="M0 0 C633.6 0 1267.2 0 1920 0 C1920 264.33 1920 528.66 1920 801 C1854.43335394 801 1854.43335394 801 1832.05859375 800.5625 C1829.53931969 800.51721453 1827.02003734 800.47238776 1824.50074768 800.42797852 C1818.10471917 800.31408105 1811.70881709 800.19427883 1805.31292725 800.07287598 C1798.69241182 799.94837963 1792.07178713 799.82997773 1785.45117188 799.7109375 C1772.63400646 799.47964608 1759.8169623 799.24227513 1747 799 C1746.41210938 797.13037109 1746.41210938 797.13037109 1746 795 C1747.40625 792.9140625 1747.40625 792.9140625 1749.5 790.625 C1760.96484516 776.93143713 1765.38491752 760.66244123 1764 743 C1761.57658252 722.0543767 1752.39051032 704.05986041 1739 688 C1738.43796875 687.32195313 1737.8759375 686.64390625 1737.296875 685.9453125 C1725.34661322 672.84830843 1707.30821739 666.08611804 1690.02734375 664.67578125 C1670.08925103 663.85887988 1651.74804326 670.45924512 1633.2253418 677.02246094 C1632.45699005 677.29005722 1631.68863831 677.5576535 1630.89700317 677.83335876 C1629.4424703 678.34051144 1627.99133388 678.85755012 1626.54440308 679.38600159 C1622.25224616 680.87341953 1620.67567162 680.93513432 1616 680 C1616 661.19 1616 642.38 1616 623 C1614.35 622.67 1612.7 622.34 1611 622 C1609.57295519 621.38191056 1608.16622788 620.71523298 1606.78111267 620.00816345 C1589.3973287 611.77663302 1572.47632758 611.3513704 1553.64659405 610.94160414 C1549.1070414 610.83390305 1544.56906033 610.6785421 1540.03070068 610.52981567 C1531.24515689 610.24957994 1522.45897966 610.01426925 1513.67171609 609.79537249 C1506.57081888 609.61728823 1499.47070021 609.41954396 1492.37069702 609.20889282 C1491.3592945 609.1789164 1490.34789199 609.14893997 1489.30584091 609.11805516 C1487.78537229 609.07298354 1487.78537229 609.07298354 1486.23418713 609.02700138 C1425.8156541 607.23632535 1365.38323469 606.10695656 1304.94165039 605.49243164 C1303.48642019 605.47739214 1302.03119011 605.46234078 1300.57596016 605.44727707 C1293.90181176 605.37878865 1287.22771773 605.31606944 1280.55340576 605.26516724 C1278.22871848 605.24414564 1275.90403175 605.22306192 1273.5793457 605.2019043 C1272.04717329 605.19335844 1272.04717329 605.19335844 1270.48404789 605.18463993 C1264.77526141 605.12825431 1259.15798218 604.81594862 1253.47869492 604.22583771 C1249.37259585 603.8517247 1245.27285317 603.83757365 1241.15234375 603.83203125 C1240.25616837 603.82870285 1239.35999298 603.82537445 1238.43666077 603.82194519 C1236.55356349 603.81692392 1234.67045748 603.81453536 1232.78735352 603.81469727 C1229.96810504 603.8125236 1227.14925707 603.79435095 1224.33007812 603.77539062 C1222.47916797 603.77245282 1220.628256 603.77047062 1218.77734375 603.76953125 C1217.96418198 603.76234573 1217.1510202 603.75516022 1216.31321716 603.74775696 C1210.65225734 603.76889298 1205.14343388 604.30063264 1199.53271484 604.98095703 C1190.77731617 606.02555649 1182.09788539 606.35643292 1173.28677177 606.49314499 C1168.69166928 606.56775063 1164.09738537 606.67942118 1159.50292969 606.78588867 C1158.06250384 606.81854639 1158.06250384 606.81854639 1156.59297848 606.85186386 C1119.42012136 607.70391387 1083.29092134 609.96375227 1046.68202209 616.70449829 C1042.05497145 617.54984525 1037.72951852 618.23667439 1033 618 C1037.10979127 708.68903866 1037.10979127 708.68903866 1052.17578125 798.1015625 C1052.8503307 801.29208548 1053.0733219 803.78843117 1053 807 C1040.34383839 807.15911653 1027.79648679 806.19737727 1015.1875 805.1875 C1013.92398712 805.08684235 1012.66047424 804.98618469 1011.3586731 804.88247681 C992.97472959 803.35287099 975.82325411 800.51167253 958.32299805 794.65893555 C957.60356018 794.41852539 956.88412231 794.17811523 956.1428833 793.93041992 C954.25163653 793.28562942 952.37116837 792.60945047 950.49194336 791.93041992 C944.07803149 790.22144851 938.10330132 790.98116101 931.65698242 792.19335938 C930.97122635 792.32015579 930.28547028 792.44695221 929.57893372 792.57759094 C928.10413204 792.85113005 926.62992114 793.12787069 925.15627098 793.407547 C922.81414338 793.85158477 920.47041553 794.28606732 918.12605286 794.71813965 C911.4656156 795.94760753 904.80864285 797.19544594 898.15209961 798.44580078 C894.06598238 799.21265701 889.97815758 799.96982857 885.88924599 800.72163391 C883.59753108 801.14614307 881.30813945 801.58187779 879.01860046 802.01794434 C867.58134873 804.14980624 857.62042214 804.6390637 846.25 802 C831.80655068 798.96443203 817.46163795 799.62092125 802.8125 800.5 C800.63717561 800.62630125 798.46179906 800.75081617 796.28613281 800.87109375 C794.68876084 800.96116342 793.09176625 801.05807031 791.49511719 801.16015625 C780.82370212 801.78623401 773.17542716 802.04214263 764.3125 795.43359375 C756.04471322 791.85543603 744.74016069 795.64635792 736.21311378 797.32808113 C734.14633473 797.73459461 732.07787373 798.13129638 730.00871277 798.52549744 C724.13449788 799.64565348 718.26257514 800.77715863 712.39428711 801.92797852 C708.77786613 802.63647573 705.15868709 803.32915598 701.53748131 804.01275444 C700.17997857 804.27206086 698.82352874 804.53696004 697.46836281 804.80821419 C680.46136456 808.20853693 664.21694155 806.98024166 647.08984375 805.3203125 C645.22438757 805.14512372 643.35887199 804.97056644 641.49330139 804.79660034 C637.61282093 804.43315121 633.73286945 804.0646441 629.85327148 803.69189453 C624.92694171 803.21862979 619.99981869 802.75437255 615.07231808 802.2934742 C610.30702181 801.84730417 605.54217602 801.39640591 600.77734375 800.9453125 C599.89346418 800.86205845 599.00958462 800.7788044 598.09892082 800.6930275 C588.16759853 799.75433804 578.26523985 798.7134045 568.37385559 797.41641235 C544.47519432 794.46676098 520.35084683 796.74626999 496.60766602 800.03417969 C483.08965039 801.83365204 472.96014085 800.92885907 460.1875 795.9375 C445.13000662 790.09368971 438.15912199 791.39557767 423.51757812 797.84960938 C403.80428207 805.62755962 378.65775975 800.53715557 357.90152645 799.43387985 C304.89945911 796.51431754 304.89945911 796.51431754 251.85913086 797.63891602 C243.14090383 798.1418731 234.41733233 798.11523782 225.6875 798.125 C224.92818176 798.12749756 224.16886353 798.12999512 223.38653564 798.13256836 C214.10136644 798.15774165 204.90227394 797.87425013 195.63891602 797.24023438 C176.54125463 795.97944277 157.82333363 797.53982094 138.84619141 799.5769043 C111.18707611 802.52568694 111.18707611 802.52568694 97.5625 796 C95.52742678 795.05106857 93.48716025 794.11318054 91.44140625 793.1875 C90.56170166 792.76855469 89.68199707 792.34960938 88.77563477 791.91796875 C83.15877975 790.06034056 77.57320034 791.10565109 71.87475586 792.19335938 C71.20062149 792.32015579 70.52648712 792.44695221 69.83192444 792.57759094 C68.38060293 792.85141954 66.92982785 793.12815758 65.47956657 793.407547 C63.18070266 793.85032584 60.88046204 794.28519463 58.57972717 794.71813965 C53.69762922 795.63834843 48.81749878 796.56873367 43.9375 797.5 C38.27587673 798.57957687 32.61349664 799.65492319 26.94943428 800.72163391 C24.68967393 801.14918702 22.43125841 801.58338627 20.1728363 802.01794434 C18.78056582 802.28115229 17.38823978 802.54406656 15.99584961 802.80664062 C14.78674423 803.03758423 13.57763885 803.26852783 12.33189392 803.50646973 C9.16252375 803.97592649 6.19783846 804.09306791 3 804 C2.26303526 799.3742362 1.8690295 794.92811519 1.84571743 790.24582386 C1.84118684 789.5998305 1.83665625 788.95383715 1.83198836 788.28826824 C1.8180268 786.12941906 1.81092794 783.9706036 1.80381775 781.8117218 C1.79511144 780.24035976 1.78598609 778.669 1.77647978 777.0976426 C1.75156279 772.77267694 1.73270595 768.44770275 1.7148484 764.12270296 C1.69446293 759.4377003 1.66851377 754.75272787 1.64332581 750.06774902 C1.5943952 740.78843444 1.55089794 731.5091017 1.50938266 722.22975127 C1.47467055 714.48172937 1.43826414 706.7337171 1.40075874 698.98570824 C1.27978355 673.96065593 1.16460827 648.93558318 1.05365706 623.91048452 C0.97510743 606.23610502 0.88972189 588.5617756 0.79956055 570.88745117 C-0.16284908 380.58846912 0 190.30571763 0 0 Z " fill="#000000" transform="translate(0,0)"/>
<path d="M0 0 C12.62714814 -0.8008762 22.6923274 4.29604449 32.11230469 12.37963867 C42.23080303 21.6029391 52.57343424 33.18705882 53.32421875 47.54296875 C52.00232129 67.2095657 41.60664828 84.26136435 27.1328125 97.140625 C22.98505118 100.25144599 20.12925701 100.53490973 15.07373047 100.68774414 C13.81905975 100.72771011 12.56438904 100.76767609 11.271698 100.80885315 C9.88947201 100.84806543 8.5072391 100.88703415 7.125 100.92578125 C5.68375899 100.96893651 4.24252579 101.01235284 2.80130005 101.05601501 C-0.24355296 101.1471843 -3.28848003 101.2350119 -6.33349609 101.32055664 C-10.12836347 101.42743339 -13.92292472 101.54249577 -17.71747208 101.66012001 C-38.43942584 102.2974099 -59.13571239 102.51600299 -79.8671875 102.390625 C-76.92071445 71.80202345 -76.92071445 71.80202345 -71.30078125 65.5234375 C-68.55021971 63.8992964 -65.7981137 62.64919919 -62.8671875 61.390625 C-56.47980404 56.10270918 -53.69732854 48.27291563 -51.8671875 40.390625 C-51.2071875 40.390625 -50.5471875 40.390625 -49.8671875 40.390625 C-49.50367188 39.41222656 -49.14015625 38.43382812 -48.765625 37.42578125 C-45.87153317 29.80775331 -42.92709214 22.86526368 -37.8671875 16.390625 C-37.08408203 15.34648438 -37.08408203 15.34648438 -36.28515625 14.28125 C-29.85272961 6.2670791 -22.94015176 2.20557697 -12.6796875 1.015625 C-10.45869763 0.81711715 -8.24061079 0.65661762 -6.01464844 0.52539062 C-4.00608246 0.39934146 -2.00232826 0.20225538 0 0 Z " fill="#000000" transform="translate(1681.8671875,695.609375)"/>
</svg>
